PathFileType	4	(X/Y/Z)	C:/Users/beibeiliu/ov580/test_trc/User2\sequence.22_training_dense_right.trc
DataRate	CameraRate	NumFrames	NumMarkers	Units	OrigDataRate	OrigDataStartFrame	OrigNumFrames
120	120	20	19	mm	120	46	364
Frame#	Time	ThumbCMC			ThumbMCP			ThumbIP			ThumbTip			IndexMCP			IndexPIP			IndexTip			MiddleMCP			MiddlePIP			MiddleTip			RingMCP			RingPIP			RingTip			PinkyMCP			PinkyPIP			PinkyTip			BackHand1			BackHand2			BackHand3	
		X0	Y0	Z0	X1	Y1	Z1	X2	Y2	Z2	X3	Y3	Z3	X4	Y4	Z4	X5	Y5	Z5	X6	Y6	Z6	X7	Y7	Z7	X8	Y8	Z8	X9	Y9	Z9	X10	Y10	Z10	X11	Y11	Z11	X12	Y12	Z12	X13	Y13	Z13	X14	Y14	Z14	X15	Y15	Z15	X16	Y16	Z16	X17	Y17	Z17	X18	Y18	Z18	
45	0.375	115.242	10.366	18.9453	96.0007	23.0705	-6.81177	76.4785	28.5059	-35.4806	60.0978	33.4572	-54.1733	78.5493	-11.9217	-43.3818	51.8807	9.99571	-37.1661	53.8762	17.1057	-0.198092	62.8444	-25.0515	-37.4217	40.6736	-2.24964	-22.9714	66.5337	-0.877715	10.5129	50.6831	-35.6244	-21.8857	32.9503	-10.3606	-7.25811	55.4696	-4.91334	19.6443	53.176	-61.1279	-12.9685	39.4117	-55.0482	-29.5994	23.0954	-58.1479	-50.836	100.514	-54.2647	15.4311	115.561	-54.7697	47.9438	127.299	-26.6437	12.8092	
46	0.383333	121.038	9.62993	15.6243	101.833	19.9758	-7.77389	80.0901	25.8708	-39.2003	66.2368	31.0697	-51.831	79.0963	-10.9614	-44.5785	52.3099	7.98466	-37.9539	58.2093	18.4828	-1.14891	60.2625	-26.2999	-34.742	41.3538	1.77011	-21.43	66.2097	3.59389	9.80331	47.9881	-33.4934	-20.5355	33.4931	-5.48424	-7.7803	57.9163	-1.4353	18.4726	47.5042	-58.8445	-9.5497	29.9247	-52.9149	-29.7034	21.0146	-47.9686	-48.3158	91.1484	-58.3717	17.2585	110.572	-56.4611	45.4979	124.007	-34.06	15.0943	
47	0.391667	123.148	4.25407	19.1716	106.236	19.309	-10.7616	86.323	25.126	-38.6203	68.6648	26.6931	-54.6567	79.8825	-13.8296	-44.5149	51.7625	7.21097	-38.7265	60.6033	23.154	-8.53232	55.1837	-26.4837	-32.8716	41.1974	5.31321	-19.3165	68.8344	9.51878	9.52318	44.6006	-32.6908	-18.0441	31.7205	-2.84699	-4.87876	57.4195	0.93361	17.3996	45.45	-54.0092	-5.8306	31.8705	-46.4631	-26.6899	19.584	-43.5767	-46.3355	90.1965	-59.3055	22.3336	111.257	-54.6539	49.6209	124.706	-35.9585	18.4619	
48	0.4	125.118	3.58899	16.7814	109.139	17.974	-10.2334	87.1158	21.6568	-40.1751	73.7925	28.376	-54.0542	73.0005	-15.2293	-45.641	55.8383	9.03058	-44.0118	59.7893	21.8028	-10.2058	53.5234	-25.66	-31.939	41.5991	6.29989	-22.5039	67.3405	12.475	8.75156	43.139	-29.3473	-19.2269	31.4995	-2.03495	-9.18749	60.3117	-0.566973	19.9707	43.0152	-51.3381	-1.88646	25.4165	-46.8109	-22.8851	16.855	-39.1457	-43.8156	87.4788	-57.4818	25.6471	105.831	-56.9681	49.9189	122.625	-38.5715	17.9976	
49	0.408333	122.831	-0.590637	16.4853	106.613	12.5175	-13.4815	89.8569	21.5716	-38.8337	73.8974	26.0722	-57.1564	74.343	-17.6035	-42.7542	53.6746	10.3836	-39.2321	63.7445	23.0781	-7.71893	57.5296	-25.3566	-32.2876	39.5173	7.96238	-18.6212	64.8198	13.3654	8.59037	37.7318	-27.783	-16.3473	33.1496	1.68574	-9.87528	60.7507	1.50332	19.0578	42.546	-47.5038	-1.28437	22.7092	-41.8927	-21.5426	14.6897	-36.4883	-41.7185	83.2705	-57.7186	24.2084	103.439	-54.067	49.6028	120.324	-41.6351	18.9188	
50	0.416667	123.285	-0.241528	12.48	108.116	14.5822	-13.5563	89.5408	20.3327	-39.0748	74.5728	25.9414	-59.9337	72.7118	-16.6054	-45.9277	54.0186	11.5472	-42.6959	62.307	25.2925	-11.4255	51.4236	-21.212	-33.7917	41.3847	9.49183	-23.7523	63.2967	12.5732	11.2889	35.1666	-25.9347	-15.2068	31.0334	3.65097	-7.76989	59.0547	1.63049	20.2375	37.6225	-44.6013	-1.32664	23.9605	-37.0922	-23.0077	6.90403	-32.7154	-39.6652	80.4576	-55.8066	21.5334	100.382	-55.4166	49.4267	116.164	-41.8098	20.8702	
51	0.425	124.223	-0.0325858	14.9749	104.734	9.68413	-13.5666	86.3119	17.3726	-37.7894	72.4387	23.6679	-58.9025	70.2107	-19.8793	-42.1088	52.1312	7.66624	-42.0203	63.6813	26.7173	-12.0474	50.8138	-24.0829	-29.6397	39.2491	10.1744	-23.0485	67.2321	16.0504	8.94273	32.4217	-25.5439	-12.4251	33.2345	8.0523	-6.31562	58.3631	2.35601	20.3711	33.8561	-42.9864	-0.822509	17.5345	-36.4814	-17.212	4.44917	-29.5021	-42.2338	76.1968	-55.6645	24.1272	94.5309	-55.4909	54.7534	114.698	-43.4755	19.8635	
52	0.433333	121.417	-2.89213	14.425	104.128	11.3307	-13.0319	82.282	15.6825	-37.7501	71.4028	24.8945	-57.0569	63.9316	-17.4036	-41.5796	50.6041	12.2711	-40.2155	61.3105	23.7804	-5.58279	44.1877	-22.1826	-28.7259	38.5021	11.549	-21.5172	62.4755	14.0943	12.5164	30.566	-22.1726	-13.8232	29.184	6.68392	-4.99927	56.8739	1.60222	20.585	32.1635	-42.8508	2.62181	16.6875	-35.4867	-18.7034	3.82276	-28.8064	-39.1222	71.9186	-56.5034	28.6283	95.9882	-52.7046	56.1475	108.807	-43.6109	22.2241	
53	0.441667	117.649	-1.14413	17.5355	102.049	13.6596	-10.8551	81.2663	19.3263	-35.0565	65.071	24.7297	-57.5624	64.121	-18.4587	-39.1267	44.9068	7.16272	-38.0252	53.5533	21.9144	-6.15716	45.4151	-22.8496	-28.3322	33.0311	12.0341	-15.0848	57.1482	13.2268	15.3777	25.6853	-24.6901	-12.1095	23.0063	3.57678	-2.75994	55.5227	0.295754	18.9071	28.8883	-46.7582	4.72345	12.1566	-40.1667	-15.1449	3.6267	-32.193	-37.8385	72.9547	-57.531	30.3672	93.7838	-54.8507	55.3882	110.165	-43.1079	20.4827	
54	0.45	110.583	2.44045	23.3245	94.6376	16.4032	-2.27512	73.3806	20.8195	-32.2451	59.3994	28.0048	-48.1681	59.2898	-13.7694	-39.3117	40.0956	11.8774	-32.2073	47.817	21.3127	-1.2575	42.7854	-22.3612	-28.5356	28.6282	8.44215	-12.0913	52.2197	12.182	15.7023	28.0187	-27.0487	-13.8381	17.8786	-2.87871	0.255175	46.5069	-1.29862	22.8033	31.0538	-52.0791	-2.16979	14.6488	-44.5811	-21.8921	-0.67504	-37.1369	-43.7654	75.8209	-56.9163	23.6207	94.8113	-56.454	54.3935	109.809	-39.3616	17.9997	
55	0.458333	101.572	8.76445	28.3243	83.2939	21.0309	1.59502	63.7405	28.4755	-23.5598	45.2095	29.425	-43.5486	60.4276	-6.49292	-37.9712	34.2865	8.92141	-28.8262	39.6895	15.4178	3.88736	43.4499	-22.5879	-28.1222	22.7578	1.61333	-11.2652	47.9631	3.8621	22.0229	29.3859	-34.7878	-12.8825	17.8304	-6.34309	1.44654	40.4925	-7.86034	29.6766	38.2522	-56.4502	-4.60048	18.1521	-52.3178	-26.0279	7.82343	-43.2554	-46.2827	81.1172	-57.6239	20.1899	98.7342	-53.9359	52.1339	111.484	-28.0031	18.9753	
56	0.466667	91.7957	14.9674	33.7474	69.6891	28.363	9.2882	49.8048	30.8389	-17.2678	32.5748	34.2442	-35.5569	55.7141	-1.3061	-34.8561	29.7096	10.4993	-26.3708	37.5385	9.77318	10.8397	44.0926	-20.4863	-28.0076	17.5074	-6.43077	-9.69249	40.5787	-1.45553	23.734	33.7105	-33.6706	-15.5979	10.872	-18.2338	4.03124	32.9599	-14.7319	31.8264	44.8405	-56.4178	-10.8479	25.1784	-56.7984	-29.7131	9.09127	-51.8396	-49.46	85.9482	-53.3128	20.0167	102.719	-50.4417	48.8185	107.872	-20.9375	22.2644	
57	0.475	78.8492	19.687	41.7023	54.2665	30.4338	15.1016	32.3212	34.4709	-12.6666	17.6792	34.3058	-24.8964	51.7041	8.05831	-30.073	20.7619	8.27822	-18.4698	37.1005	2.72038	14.7393	40.8261	-18.4396	-26.0804	12.5529	-8.43944	-4.25594	36.1984	-8.56627	26.5469	32.6406	-36.2388	-15.6666	8.46844	-24.3097	2.8603	30.5576	-16.1175	32.8046	46.9521	-58.1821	-16.845	31.2816	-52.2356	-33.4729	15.2014	-50.46	-57.0464	89.4695	-43.8434	17.6244	101.632	-45.5278	45.8477	103.152	-12.3739	26.1355	
58	0.483333	64.7759	19.6194	47.0079	37.7487	29.1988	27.8728	16.3936	34.9943	1.49548	0.231809	31.9488	-17.4783	41.685	11.8141	-22.964	11.5093	8.71216	-8.9624	30.9964	2.55813	19.5295	38.7238	-13.3239	-24.1295	7.31635	-16.0704	-1.5694	32.4242	-8.97346	29.9175	31.7902	-30.0623	-16.9194	6.81263	-31.4778	5.24892	24.6034	-23.9024	33.6975	50.5693	-53.1549	-18.4808	33.0794	-50.4239	-37.0826	20.6586	-48.4911	-58.2258	87.3846	-39.1483	19.2266	101.955	-39.4422	51.0431	96.6306	-3.14716	33.0272	
59	0.491667	52.3654	16.5936	55.9554	23.5584	27.0629	36.156	4.58235	24.6847	7.24186	-13.0559	26.9884	-7.48786	30.1609	18.298	-15.1493	3.81674	3.26496	-5.79334	24.6365	-5.19121	23.6523	29.7345	-10.0685	-21.5087	1.834	-19.6561	-1.04368	21.6492	-17.7936	32.3335	29.2164	-32.0585	-17.329	4.68057	-37.5831	3.94121	23.7108	-33.1573	33.8839	53.3498	-48.0004	-18.4453	35.4085	-47.5888	-37.1644	20.9591	-42.1268	-55.4115	84.3005	-29.1456	16.1173	100.259	-32.4455	51.4281	88.9491	2.7927	39.0903	
60	0.5	40.5839	14.9319	66.2109	15.6209	17.1709	43.1326	-7.05197	21.7135	16.5628	-25.499	23.404	-0.742614	19.2451	16.0984	-11.6387	-5.15521	-2.58221	0.822914	14.1264	-9.00913	30.8981	27.6034	-5.15017	-17.0372	-2.55961	-21.1922	-2.02232	18.5903	-25.5852	36.8556	26.2165	-31.2858	-17.6699	6.6991	-41.7182	1.87244	26.542	-37.0635	32.6238	54.4291	-42.1391	-19.1181	33.1475	-36.6885	-38.1745	22.561	-38.8965	-56.8468	84.3185	-22.7802	19.1633	98.0867	-26.2289	51.8349	79.2871	8.88659	42.1101	
61	0.508333	31.4962	8.59933	69.8269	2.42722	12.1863	53.1652	-18.3149	14.8483	23.1108	-30.7123	12.3753	5.58458	12.817	17.7964	-1.38814	-9.28195	-10.0475	0.261764	2.25754	-18.811	30.8902	24.6203	-7.22422	-12.1171	-5.256	-28.3478	1.14328	9.70023	-32.6796	37.504	27.0351	-24.8835	-14.7356	6.95563	-42.3836	-1.73269	25.7547	-39.99	30.9666	52.3037	-30.2733	-18.2558	37.2413	-33.3712	-35.1819	19.2117	-27.9628	-57.8941	79.3745	-15.8119	23.0459	94.0567	-20.1551	55.0571	68.0565	13.5252	52.59	
62	0.516667	24.3028	1.31758	77.9223	-2.55412	1.48281	57.4195	-23.499	5.75845	25.7813	-38.545	4.88383	10.5278	7.40859	13.6698	4.15783	-11.6963	-12.0094	0.107772	-2.37248	-28.802	32.9182	16.3489	-6.44458	-10.5145	-4.39436	-32.4831	0.941873	13.3403	-40.7127	38.6989	30.8995	-22.298	-14.4677	8.4733	-42.6511	-0.570475	29.9259	-38.5702	31.2165	55.9548	-25.0485	-15.8906	35.4327	-23.6692	-35.1303	17.6881	-20.3146	-53.6846	76.8043	-8.82249	31.284	93.3385	-16.457	61.0334	59.9487	11.3909	58.4009	
63	0.525	18.6829	-6.51567	80.4382	-6.54453	-6.66456	59.2089	-27.7157	-2.62274	31.0584	-43.3794	-3.07964	10.4156	2.53695	9.88965	7.90744	-18.7973	-18.1657	4.88494	-0.8025	-37.1096	31.1972	16.2956	-5.57208	-5.31503	-1.55489	-34.9023	-1.39466	16.7541	-45.8371	38.6132	31.7897	-18.333	-13.0539	14.2768	-43.5809	-6.44659	28.9631	-41.9249	26.0234	55.3446	-18.7394	-13.0048	36.5586	-17.9884	-29.3241	21.6295	-15.0492	-51.0823	73.6656	-2.94809	32.7107	88.8939	-13.6662	66.0355	52.0287	10.4795	65.5076	
64	0.533333	19.3617	-16.2013	86.2781	-10.4426	-12.3886	60.2238	-29.8629	-11.6346	34.5938	-42.0358	-10.5391	11.3487	-3.12291	9.45612	13.4485	-18.6033	-23.9202	5.73016	-2.03949	-42.7125	30.5555	11.5336	-4.39562	-1.6007	1.25982	-38.796	-1.19524	13.6092	-48.1181	36.0275	30.1522	-15.7657	-11.8361	15.864	-46.2764	-5.99043	27.2048	-43.716	25.1507	52.9994	-14.1703	-10.222	36.3646	-14.5084	-31.3726	24.4664	-12.2962	-51.1111	71.5756	-2.58489	34.9427	87.5238	-11.8832	67.3484	50.954	6.31773	69.8341	
